<svg version="1.1" id="Capa_1" xmlns="http://www.w3.org/2000/svg" x="0" y="0" viewBox="0 0 256 256" xml:space="preserve"><style>.st4{opacity:.6}</style><path d="M25 12h206c7.2 0 13 5.8 13 13v206c0 7.2-5.8 13-13 13H25c-7.2 0-13-5.8-13-13V25c0-7.2 5.8-13 13-13z" fill="#1a202c"/><g id="XMLID_1_"><g id="XMLID_27_"><linearGradient id="XMLID_5_" gradientUnits="userSpaceOnUse" x1="54.536" y1="128.515" x2="39.583" y2="128.515"><stop offset="0" stop-color="#b97812"/><stop offset=".131" stop-color="#cb922e"/><stop offset=".377" stop-color="#e9bf5e"/><stop offset=".5" stop-color="#f5d070"/><stop offset=".623" stop-color="#e9bf5e"/><stop offset=".869" stop-color="#cb922e"/><stop offset="1" stop-color="#b97812"/></linearGradient><path id="XMLID_30_" fill="url(#XMLID_5_)" d="M55.9 128.5l-15.5 15.8v-31.6l3.2 3.2z"/><linearGradient id="XMLID_6_" gradientUnits="userSpaceOnUse" x1="213.628" y1="123.707" x2="192.75" y2="123.707"><stop offset="0" stop-color="#b97812"/><stop offset=".131" stop-color="#cb922e"/><stop offset=".377" stop-color="#e9bf5e"/><stop offset=".5" stop-color="#f5d070"/><stop offset=".623" stop-color="#e9bf5e"/><stop offset=".869" stop-color="#cb922e"/><stop offset="1" stop-color="#b97812"/></linearGradient><path id="XMLID_29_" fill="url(#XMLID_6_)" d="M215.6 112.7v22h-21.7z"/><linearGradient id="XMLID_8_" gradientUnits="userSpaceOnUse" x1="200.064" y1="182.601" x2="34.288" y2="182.601"><stop offset="0" stop-color="#b97812"/><stop offset=".131" stop-color="#cb922e"/><stop offset=".377" stop-color="#e9bf5e"/><stop offset=".5" stop-color="#f5d070"/><stop offset=".623" stop-color="#e9bf5e"/><stop offset=".869" stop-color="#cb922e"/><stop offset="1" stop-color="#b97812"/></linearGradient><path id="XMLID_28_" fill="url(#XMLID_8_)" d="M215.6 138.3v6L128 233.5l-84.5-86h.1l2-2 13.5-13.8 68.9 70.2 62.4-63.6z"/></g><g id="XMLID_23_" class="st4"><g id="XMLID_24_"><linearGradient id="XMLID_9_" gradientUnits="userSpaceOnUse" x1="193.946" y1="127.178" x2="215.582" y2="127.178"><stop offset="0" stop-color="#b97812"/><stop offset=".131" stop-color="#cb922e"/><stop offset=".377" stop-color="#e9bf5e"/><stop offset=".5" stop-color="#f5d070"/><stop offset=".623" stop-color="#e9bf5e"/><stop offset=".869" stop-color="#cb922e"/><stop offset="1" stop-color="#b97812"/></linearGradient><path id="XMLID_26_" opacity=".51" fill="url(#XMLID_9_)" d="M215.6 120.2v14.5h-21.7l15.1-15.1z"/></g></g><g id="XMLID_20_" class="st4"><linearGradient id="XMLID_11_" gradientUnits="userSpaceOnUse" x1="40.418" y1="130.113" x2="55.951" y2="130.113"><stop offset="0" stop-color="#b97812"/><stop offset=".131" stop-color="#cb922e"/><stop offset=".377" stop-color="#e9bf5e"/><stop offset=".5" stop-color="#f5d070"/><stop offset=".623" stop-color="#e9bf5e"/><stop offset=".869" stop-color="#cb922e"/><stop offset="1" stop-color="#b97812"/></linearGradient><path id="XMLID_22_" fill="url(#XMLID_11_)" d="M56 128.5h-.1l-15.5 15.8.7-25.9 2.5-2.5z"/></g><g id="XMLID_10_"><linearGradient id="XMLID_12_" gradientUnits="userSpaceOnUse" x1="127.544" y1="136.877" x2="130.917" y2="-42.217"><stop offset="0" stop-color="#b97812"/><stop offset=".131" stop-color="#cb922e"/><stop offset=".377" stop-color="#e9bf5e"/><stop offset=".5" stop-color="#f5d070"/><stop offset=".623" stop-color="#e9bf5e"/><stop offset=".869" stop-color="#cb922e"/><stop offset="1" stop-color="#b97812"/></linearGradient><path id="XMLID_17_" fill="url(#XMLID_12_)" d="M215.6 112.7h-31.1L128 55.1l-72 73.4h-.1l-15.5 15.8v-31.6L128 23.5z"/></g><g id="XMLID_2_"><g id="XMLID_3_"><linearGradient id="XMLID_13_" gradientUnits="userSpaceOnUse" x1="118.637" y1="124.68" x2="259.803" y2="122.383"><stop offset="0" stop-color="#b97812"/><stop offset=".131" stop-color="#cb922e"/><stop offset=".377" stop-color="#e9bf5e"/><stop offset=".5" stop-color="#f5d070"/><stop offset=".623" stop-color="#e9bf5e"/><stop offset=".869" stop-color="#cb922e"/><stop offset="1" stop-color="#b97812"/></linearGradient><path id="XMLID_7_" fill="url(#XMLID_13_)" d="M215.6 112.7v22H128l13.2-22z"/></g></g></g></svg>